<?xml version="1.0" encoding="utf-8"?>
<!-- Generator: Adobe Illustrator 21.1.0, SVG Export Plug-In . SVG Version: 6.00 Build 0)  -->
<svg version="1.1" id="Frame" xmlns="http://www.w3.org/2000/svg" xmlns:xlink="http://www.w3.org/1999/xlink" x="0px" y="0px"
	 viewBox="0 0 35 35" style="enable-background:new 0 0 35 35;" xml:space="preserve">
<style type="text/css">
	.st0{fill:#111F2A;}
</style>
<g>
	<g>
		<path class="st0" d="M24.5,33.3h-14c-0.5,0-0.9,0.4-0.9,0.9c0,0.5,0.4,0.9,0.9,0.9h14c0.5,0,0.9-0.4,0.9-0.9
			C25.4,33.6,25,33.3,24.5,33.3z"/>
	</g>
	<g>
		<path class="st0" d="M5.3,6.1l3.7,0l7.7-1.5v26.1c0,0.5,0.4,0.9,0.9,0.9c0.5,0,0.9-0.4,0.9-0.9V4.6l7.9,1.6h3.5
			c0.5,0,0.9-0.4,0.9-0.9c0-0.5-0.4-0.9-0.9-0.9l-3.3,0l-8-1.6V0.9C18.4,0.4,18,0,17.5,0c-0.5,0-0.9,0.4-0.9,0.9v1.9L8.8,4.4H5.3
			c-0.5,0-0.9,0.4-0.9,0.9C4.4,5.7,4.8,6.1,5.3,6.1z"/>
	</g>
	<g>
		<path class="st0" d="M5.3,7.9C3.5,8.8,0,19.1,0,21s2.4,3.5,5.3,3.5s5.3-1.6,5.3-3.5S7,8.8,5.3,7.9z M5.3,22.8
			c-2.1,0-3.5-1-3.5-1.7c0-1.2,2-7.3,3.5-10.2c1.5,2.9,3.5,9,3.5,10.2C8.8,21.7,7.4,22.8,5.3,22.8z"/>
	</g>
	<g>
		<path class="st0" d="M29.8,7.9C28,8.8,24.5,19.1,24.5,21s2.4,3.5,5.3,3.5S35,22.9,35,21S31.5,8.8,29.8,7.9z M29.8,22.8
			c-2.1,0-3.5-1-3.5-1.7c0-1.2,2-7.3,3.5-10.2c1.5,2.9,3.5,9,3.5,10.2C33.3,21.7,31.9,22.8,29.8,22.8z"/>
	</g>
</g>
</svg>
