<?xml version="1.0" encoding="utf-8"?>
<!-- Generator: Adobe Illustrator 21.1.0, SVG Export Plug-In . SVG Version: 6.00 Build 0)  -->
<svg version="1.1" id="Frame" xmlns="http://www.w3.org/2000/svg" xmlns:xlink="http://www.w3.org/1999/xlink" x="0px" y="0px"
	 viewBox="0 0 5000 5000" style="enable-background:new 0 0 5000 5000;" xml:space="preserve">
<style type="text/css">
	.st0{fill:#111F2A;}
</style>
<g>
	<g>
		<path class="st0" d="M3838,916.3c5.8,0,10.5-5.9,10.5-13.1s-4.7-13.1-10.5-13.1c-5.8,0-10.5,5.9-10.5,13.1
			S3832.2,916.3,3838,916.3z M3838,891.8c4.8,0,8.8,5.1,8.8,11.4s-3.9,11.4-8.8,11.4c-4.8,0-8.8-5.1-8.8-11.4
			S3833.2,891.8,3838,891.8z"/>
	</g>
	<g>
		<path class="st0" d="M3845.6,914.7c-0.5,0.5-1,0.9-1.5,1.2c1.7,0.8,3.1,1.4,4.4,2c4.6,2,5.2,2.4,5.2,3.6c0,0.8-0.8,1.8-1.8,1.8
			h-28c-1,0-1.8-1-1.8-1.8c0-1.1,0.6-1.5,5.2-3.6c1.2-0.5,2.7-1.2,4.4-2c-0.5-0.4-1-0.8-1.5-1.2c-7.3,3.3-9.9,3.8-9.9,6.8
			c0,1.8,1.6,3.5,3.5,3.5h28c1.9,0,3.5-1.8,3.5-3.5C3855.5,918.5,3852.9,918.1,3845.6,914.7z"/>
	</g>
</g>
</svg>
