<?xml version="1.0" encoding="utf-8"?>
<!-- Generator: Adobe Illustrator 21.1.0, SVG Export Plug-In . SVG Version: 6.00 Build 0)  -->
<svg version="1.1" id="Frame" xmlns="http://www.w3.org/2000/svg" xmlns:xlink="http://www.w3.org/1999/xlink" x="0px" y="0px"
	 viewBox="0 0 29.8 35" style="enable-background:new 0 0 29.8 35;" xml:space="preserve">
<style type="text/css">
	.st0{fill:#111F2A;}
</style>
<g>
	<g>
		<g>
			<path class="st0" d="M24.8,9.1l1.2-1.5l-1.4-1.1L23.5,8c-2.2-1.6-4.8-2.5-7.7-2.7V1.8h2.6c0.5,0,0.9-0.4,0.9-0.9S18.9,0,18.4,0
				h-7c-0.5,0-0.9,0.4-0.9,0.9s0.4,0.9,0.9,0.9H14v3.5C11.1,5.5,8.5,6.4,6.3,8L5.1,6.5L3.7,7.5l1.2,1.5c-3,2.7-4.9,6.7-4.9,11
				C0,28.3,6.7,35,14.9,35c8.2,0,14.9-6.7,14.9-14.9C29.8,15.7,27.8,11.8,24.8,9.1z M14.9,33.3c-7.2,0-13.1-5.9-13.1-13.1
				S7.6,7,14.9,7C22.1,7,28,12.9,28,20.1S22.1,33.3,14.9,33.3z"/>
		</g>
		<g>
			<path class="st0" d="M14.9,17.5c-1.4,0-2.6,1.2-2.6,2.6c0,1.1,0.7,2.1,1.8,2.5v8.9h1.8v-8.9c1-0.4,1.8-1.3,1.8-2.5
				C17.5,18.7,16.3,17.5,14.9,17.5z M14.9,21c-0.5,0-0.9-0.4-0.9-0.9s0.4-0.9,0.9-0.9c0.5,0,0.9,0.4,0.9,0.9S15.4,21,14.9,21z"/>
		</g>
	</g>
	<g>
		<g>
			<path class="st0" d="M14.9,8.8v1.8c5.3,0,9.6,4.3,9.6,9.6c0,4.4-3,8.1-7,9.3v1.8c5-1.2,8.8-5.7,8.8-11.1
				C26.3,13.8,21.2,8.8,14.9,8.8z"/>
		</g>
	</g>
</g>
</svg>
