<?xml version="1.0" encoding="utf-8"?>
<!-- Generator: Adobe Illustrator 21.1.0, SVG Export Plug-In . SVG Version: 6.00 Build 0)  -->
<svg version="1.1" id="Слой_1" xmlns="http://www.w3.org/2000/svg" xmlns:xlink="http://www.w3.org/1999/xlink" x="0px" y="0px"
	 viewBox="0 0 71.7 65.3" style="enable-background:new 0 0 71.7 65.3;" xml:space="preserve">
<style type="text/css">
	.st0{fill:#111F2A;}
</style>
<g>
	<path class="st0" d="M50.9,46.3c-0.8-0.9-2.3-1-3.2-0.1L44.8,49c-0.2-0.4-0.5-0.8-0.8-1.2c0,0-7-7.1-9.1-9.7
		c-2-2.6-7.2-11.1-7.2-11.1c-0.1-0.2-0.3-0.4-0.4-0.5c0.5,0,1-0.1,1.4-0.3l3.5-2.2c1-0.7,1.4-2,0.7-3.1l-5.9-9.4
		c-0.7-1-2-1.4-3.1-0.7l-3.5,2.2c-0.3,0.2-0.5,0.4-0.7,0.7l-1.4,1c-2.7,1.9-3,4.6-1.9,8.3c0,0,2.6,8.1,9.9,18.2
		c7,9.7,12.7,15.8,18.1,19.9c3.1,2.3,5.7,3.3,8.4,1.3l1.5-1.1c0.4-0.1,0.8-0.3,1.1-0.5l3-2.8c0.9-0.8,1-2.3,0.1-3.2L50.9,46.3z"/>
	<path class="st0" d="M65.2,31C64.4,13.7,50.1,0,32.6,0C14.6,0,0,14.6,0,32.6c0,18,14.6,32.6,32.6,32.6c1.1,0,2-0.9,2-2s-0.9-2-2-2
		C16.8,61.3,4,48.4,4,32.6C4,16.8,16.8,4,32.6,4c15.2,0,27.7,12,28.6,27l-6.4,0l8.5,9.5l8.5-9.5L65.2,31z"/>
</g>
</svg>
