<?xml version="1.0" encoding="utf-8"?>
<!-- Generator: Adobe Illustrator 21.1.0, SVG Export Plug-In . SVG Version: 6.00 Build 0)  -->
<svg version="1.1" id="Layer_1" xmlns="http://www.w3.org/2000/svg" xmlns:xlink="http://www.w3.org/1999/xlink" x="0px" y="0px"
	 viewBox="0 0 78 67" style="enable-background:new 0 0 78 67;" xml:space="preserve">
<style type="text/css">
	.st0{fill:#24313A;}
	.st1{fill:#E8B863;}
</style>
<g>
	<path class="st0" d="M9.5,2.9h59c0.8,0,1.5-0.7,1.5-1.5C70,0.7,69.3,0,68.5,0h-59C8.7,0,8,0.7,8,1.5C8,2.3,8.7,2.9,9.5,2.9z"/>
	<path class="st0" d="M71.9,7.5H59.1H18.9H6.1C2.8,7.5,0,10.2,0,13.6v47.3C0,64.3,2.8,67,6.1,67h65.7c3.4,0,6.1-2.7,6.1-6.1V13.6
		C78,10.2,75.2,7.5,71.9,7.5z M2.9,13.6c0-1.8,1.4-3.2,3.2-3.2h12.7h40.2h12.7c1.8,0,3.2,1.4,3.2,3.2v47.3c0,1.8-1.4,3.2-3.2,3.2
		H6.1c-1.8,0-3.2-1.4-3.2-3.2V13.6z"/>
	<path class="st1" d="M12.8,55.5h27.6c0.4,0,0.8-0.2,1-0.4c0.3-0.3,0.4-0.6,0.4-1v-3.1c0-2-1.2-3.9-3-4.8l-5.9-3.6
		c1.9-1.7,3-4,3.1-6.6l0.2-6.2c0-4.8-4-8.7-8.9-8.7h-1.6c-4.9,0-8.9,3.9-8.9,8.8l0.2,6.1c0.1,2.5,1.2,4.9,3.1,6.6l-5.8,3.6
		c-1.9,0.9-3.1,2.8-3.1,4.8v3.1C11.3,54.9,12,55.5,12.8,55.5z M23.7,43.8c0.5-0.3,0.7-0.8,0.7-1.3c0-0.5-0.3-1-0.8-1.2
		c-2.1-1.1-3.5-3.1-3.6-5.4l-0.2-6.1c0-3.2,2.7-5.8,6-5.8h1.6c3.3,0,6,2.6,6,5.8l-0.2,6.1c-0.1,2.3-1.5,4.4-3.6,5.4
		c-0.5,0.2-0.8,0.7-0.8,1.2c0,0.5,0.2,1,0.7,1.3l7.9,4.8c0.1,0,0.1,0.1,0.1,0.1c0.9,0.4,1.4,1.3,1.4,2.2v1.7H14.2v-1.7
		c0-1,0.6-1.8,1.5-2.3L23.7,43.8z"/>
	<path class="st1" d="M50.9,29.4h14.5c0.8,0,1.5-0.7,1.5-1.5s-0.7-1.5-1.5-1.5H50.9c-0.8,0-1.5,0.7-1.5,1.5S50.1,29.4,50.9,29.4z"/>
	<path class="st1" d="M50.9,39.7h14.5c0.8,0,1.5-0.7,1.5-1.5c0-0.8-0.7-1.5-1.5-1.5H50.9c-0.8,0-1.5,0.7-1.5,1.5
		C49.5,39.1,50.1,39.7,50.9,39.7z"/>
	<path class="st1" d="M50.9,50.1h14.5c0.8,0,1.5-0.7,1.5-1.5c0-0.8-0.7-1.5-1.5-1.5H50.9c-0.8,0-1.5,0.7-1.5,1.5
		C49.5,49.4,50.1,50.1,50.9,50.1z"/>
</g>
</svg>
