<?xml version="1.0" encoding="utf-8"?>
<!-- Generator: Adobe Illustrator 21.1.0, SVG Export Plug-In . SVG Version: 6.00 Build 0)  -->
<svg version="1.1" id="Layer_1" xmlns="http://www.w3.org/2000/svg" xmlns:xlink="http://www.w3.org/1999/xlink" x="0px" y="0px"
	 viewBox="0 0 88.8 80" style="enable-background:new 0 0 88.8 80;" xml:space="preserve">
<style type="text/css">
	.st0{fill:#24313A;}
	.st1{fill:#E8B863;}
</style>
<g>
	<path id="XMLID_449_" class="st0" d="M46.6,41.5c4.3,0,7.8-3.5,7.8-7.8s-3.5-7.8-7.8-7.8c0,0,0,0-0.1,0h-6.4c0,0,0,0,0,0
		c-0.8,0-1.4,0.6-1.4,1.4v0v12.9v4.1h-1.4c-0.8,0-1.4,0.6-1.4,1.4c0,0.8,0.6,1.4,1.4,1.4h1.4v7.8c0,0.8,0.6,1.4,1.4,1.4
		s1.4-0.6,1.4-1.4V47h5.1c0.8,0,1.4-0.6,1.4-1.4c0-0.8-0.6-1.4-1.4-1.4h-5.1v-2.8H46.6z M46.6,28.6C46.7,28.6,46.7,28.6,46.6,28.6
		c2.8,0,5.1,2.3,5.1,5.1c0,2.8-2.3,5.1-5.1,5.1h-5.1V28.6H46.6z"/>
	<path class="st1" d="M7.8,43.4c2.7,0,4.9,2.2,4.9,4.9c0,2.7-2.2,4.9-4.9,4.9S2.9,51,2.9,48.3C2.9,45.6,5.1,43.4,7.8,43.4 M7.8,40.5
		C3.5,40.5,0,44,0,48.3C0,52.6,3.5,56,7.8,56s7.8-3.5,7.8-7.8C15.6,44,12.1,40.5,7.8,40.5L7.8,40.5z"/>
	<path class="st0" d="M78.7,55.5c-6.2,13.3-19.5,21.8-34.1,21.6C31,77,18.8,69.6,12.4,57.9c-0.9,0.4-1.8,0.7-2.8,0.9
		C16.3,71.6,29.7,79.9,44.4,80c15.8,0.3,30.2-8.8,36.9-23.1C82.1,55.1,79.4,53.8,78.7,55.5z"/>
	<path class="st1" d="M81,26.7c2.7,0,4.9,2.2,4.9,4.9c0,2.7-2.2,4.9-4.9,4.9s-4.9-2.2-4.9-4.9C76.2,28.9,78.4,26.7,81,26.7 M81,23.8
		c-4.3,0-7.8,3.5-7.8,7.8c0,4.3,3.5,7.8,7.8,7.8s7.8-3.5,7.8-7.8C88.8,27.3,85.3,23.8,81,23.8L81,23.8z"/>
	<path class="st0" d="M76.7,21.9c0.9-0.4,1.8-0.7,2.8-0.8C72.7,8.5,59.7,0.4,45.4,0C29.8-0.4,15.3,8.3,8.5,22.3
		c-0.9,1.7,1.7,3,2.6,1.3c6.4-13,19.7-21,34.1-20.7C58.5,3.3,70.3,10.5,76.7,21.9z"/>
</g>
</svg>
