<?xml version="1.0" encoding="utf-8"?>
<!-- Generator: Adobe Illustrator 21.1.0, SVG Export Plug-In . SVG Version: 6.00 Build 0)  -->
<svg version="1.1" id="Layer_1" xmlns="http://www.w3.org/2000/svg" xmlns:xlink="http://www.w3.org/1999/xlink" x="0px" y="0px"
	 viewBox="0 0 71.9 80" style="enable-background:new 0 0 71.9 80;" xml:space="preserve">
<style type="text/css">
	.st0{fill:#E8B863;}
	.st1{fill:#24313A;}
</style>
<path class="st0" d="M66.8,54.6v-0.3c0-5.6-4.4-10.1-9.9-10.1S47,48.7,47,54.3v0.3h-5.1V80h29.9V54.6H66.8z M51.5,54.6v-0.3
	c0-3,2.4-5.5,5.4-5.5c3,0,5.4,2.5,5.4,5.5v0.3H51.5z M56.9,68.9c-0.8,0-1.5-0.7-1.5-1.6s0.7-1.6,1.5-1.6s1.5,0.7,1.5,1.6
	S57.7,68.9,56.9,68.9z M59.2,73.8V73c2.3-0.9,3.8-3.2,3.8-5.7c0-3.4-2.7-6.2-6.1-6.2c-3.4,0-6.1,2.8-6.1,6.2c0,2.5,1.5,4.8,3.8,5.7
	v0.8c0,0.6,0.2,1.2,0.6,1.6h-8.8V59.2h20.9v16.2h-8.8C58.9,75,59.2,74.4,59.2,73.8z"/>
<g>
	<path class="st1" d="M45.5,15.6c-1.3,0-2.3,1-2.3,2.3v1.9c0,0.5-0.4,1-0.9,1h-14c-0.5,0-0.9-0.4-0.9-1v-1.9c0-1.3-1-2.3-2.3-2.3
		c-1.3,0-2.3,1-2.3,2.3v1.9c0,3.1,2.4,5.6,5.5,5.6h14c3,0,5.5-2.5,5.5-5.6v-1.9C47.7,16.6,46.7,15.6,45.5,15.6z"/>
	<path class="st1" d="M36.1,58.5h-7.8c-0.5,0-0.9-0.4-0.9-1v-1.9c0-1.3-1-2.3-2.3-2.3c-1.3,0-2.3,1-2.3,2.3v1.9
		c0,3.1,2.4,5.6,5.5,5.6h7.8c1.3,0,2.3-1,2.3-2.3C38.3,59.5,37.3,58.5,36.1,58.5z"/>
	<path class="st1" d="M66,0H4.6C2.1,0,0,2.1,0,4.7v70.6C0,77.9,2.1,80,4.6,80h30.2c1.3,0,2.3-1,2.3-2.3c0-1.3-1-2.3-2.3-2.3
		L4.5,75.3v-33h61.5V46c0,1.3,1,2.3,2.3,2.3c1.3,0,2.3-1,2.3-2.3V4.7C70.6,2.1,68.5,0,66,0z M66.1,4.7v33H4.5v-33c0,0,0-0.1,0.1-0.1
		L66.1,4.7C66,4.6,66.1,4.6,66.1,4.7z"/>
</g>
</svg>
