<?xml version="1.0" encoding="utf-8"?>
<!-- Generator: Adobe Illustrator 21.1.0, SVG Export Plug-In . SVG Version: 6.00 Build 0)  -->
<svg version="1.1" id="Layer_1" xmlns="http://www.w3.org/2000/svg" xmlns:xlink="http://www.w3.org/1999/xlink" x="0px" y="0px"
	 viewBox="0 0 87.7 80" style="enable-background:new 0 0 87.7 80;" xml:space="preserve">
<style type="text/css">
	.st0{fill:#24313A;}
	.st1{fill:#E8B863;}
</style>
<g>
	<path class="st0" d="M50.9,16H35.8c-1,0-1.8,0.8-1.8,1.8s0.8,1.8,1.8,1.8h15.1c1,0,1.8-0.8,1.8-1.8C52.6,16.8,51.8,16,50.9,16z"/>
	<path class="st0" d="M69,76.5c-1,0-1.8,0.8-1.8,1.8c0,1,0.8,1.8,1.8,1.8h5.6c1,0,1.8-0.8,1.8-1.8V53.7h4c1,0,1.8-0.8,1.8-1.8v-6.5
		h3.8c1,0,1.8-0.8,1.8-1.8c0-1-0.8-1.8-1.8-1.8H70.5l-1.9-10.4c-0.4-2.5-2.6-4.2-5-4.2h-2.1L60.3,7c-0.2-3.9-3.5-7-7.5-7H34.9
		c-4,0-7.2,3.1-7.5,7l-1.2,20.2h-2.1c-2.5,0-4.6,1.8-5,4.2l-1.9,10.4H1.8c-1,0-1.8,0.8-1.8,1.8c0,1,0.8,1.8,1.8,1.8h3.8v6.5
		c0,1,0.8,1.8,1.8,1.8h3.8v24.5c0,1,0.8,1.8,1.8,1.8h5.6c1,0,1.8-0.8,1.8-1.8s-0.8-1.8-1.8-1.8h-3.8V53.7h58.1v22.8H69z M63.5,30.8
		c0.8,0,1.4,0.6,1.6,1.3l1.8,9.8h-4.5l-0.7-11.1H63.5z M30.9,7.2c0.1-2.1,1.8-3.7,3.9-3.7h17.9c2.1,0,3.8,1.6,3.9,3.7l2.1,34.6H28.9
		L30.9,7.2z M22.6,32.1c0.1-0.8,0.8-1.3,1.6-1.3H26l-0.7,11.1h-4.5L22.6,32.1z M9.1,50.2v-4.8h9.6l0,0l0,0H69l0,0l0,0h9.6v4.8H9.1z"
		/>
	<path class="st1" d="M62.4,59c0-1-0.8-1.8-1.8-1.8H27c-1,0-1.8,0.8-1.8,1.8c0,1,0.8,1.8,1.8,1.8h15.1v6.8h-7.2
		c-1,0-1.8,0.8-1.8,1.8v8.9c0,1,0.8,1.8,1.8,1.8c1,0,1.8-0.8,1.8-1.8v-7.1h5.5v7.1c0,1,0.8,1.8,1.8,1.8c1,0,1.8-0.8,1.8-1.8v-7.1
		h5.5v7.1c0,1,0.8,1.8,1.8,1.8c1,0,1.8-0.8,1.8-1.8v-8.9c0-1-0.8-1.8-1.8-1.8h-7.2v-6.8h15.1C61.6,60.8,62.4,60,62.4,59z"/>
</g>
</svg>
