<?xml version="1.0" encoding="utf-8"?>
<!-- Generator: Adobe Illustrator 21.1.0, SVG Export Plug-In . SVG Version: 6.00 Build 0)  -->
<svg version="1.1" id="Layer_1" xmlns="http://www.w3.org/2000/svg" xmlns:xlink="http://www.w3.org/1999/xlink" x="0px" y="0px"
	 viewBox="0 0 80.1 80" style="enable-background:new 0 0 80.1 80;" xml:space="preserve">
<style type="text/css">
	.st0{fill:#24313A;}
	.st1{fill:#E8B863;}
</style>
<g>
	<path class="st0" d="M68.4,11.8C61.1,4.5,51,0,40,0S18.9,4.5,11.7,11.7S0,29,0,40c0,10.8,4.2,20.6,11.2,27.8S27.8,79.6,38.6,80
		c0.8,0,1.6-0.7,1.6-1.5s-0.7-1.6-1.5-1.6c-9.9-0.3-18.8-4.6-25.1-11.2C7.1,58.9,3.2,49.9,3.2,40c0-10.2,4.2-19.4,10.8-26.1
		C20.6,7.3,29.8,3.2,40,3.2S59.4,7.4,66,14c6.6,6.6,10.8,15.9,10.8,26.1c0,3.2-0.4,6.4-1.2,9.4c-0.8,3-2,5.9-3.6,8.7
		c-0.4,0.8-0.2,1.7,0.6,2.2c0.8,0.4,1.7,0.2,2.2-0.6c1.7-3,3-6.2,3.9-9.5c0.8-3.3,1.4-6.8,1.4-10.2C80.1,29,75.6,19,68.4,11.8z"/>
	<path class="st0" d="M39.9,8.7c-8.6,0-16.4,3.5-22.1,9.2C12.2,23.5,8.7,31.3,8.7,40c0,7,2.3,13.5,6.3,18.9c4,5.3,9.7,9.3,16.4,11.2
		c0.8,0.3,1.7-0.3,2-1.1c0.3-0.8-0.3-1.7-1.1-2c-6-1.7-11.1-5.4-14.7-10c-3.3-4.3-5.3-9.6-5.6-15.3h4c0.8,0,1.6-0.7,1.6-1.6
		c0-0.8-0.7-1.6-1.6-1.6h-4c0.4-7.1,3.4-13.5,8.2-18.2c4.8-4.8,11.1-7.7,18.2-8.2v4c0,0.8,0.7,1.6,1.6,1.6c0.8,0,1.6-0.7,1.6-1.6v-4
		c7.1,0.4,13.5,3.4,18.2,8.2c4.8,4.8,7.7,11.1,8.2,18.2h-4c-0.8,0-1.6,0.7-1.6,1.6c0,0.8,0.7,1.6,1.6,1.6h4
		c-0.1,0.8-0.1,1.7-0.3,2.5c-0.2,1.4-0.5,2.7-0.9,4.1c-0.3,0.8,0.3,1.7,1,2c1.1,0.3,2-0.3,2.2-1.1c0.4-1.5,0.8-3.1,1-4.5
		c0.3-1.5,0.3-3.1,0.3-4.7c0-8.6-3.5-16.4-9.2-22.1C56.4,12.3,48.6,8.7,39.9,8.7z"/>
	<path class="st0" d="M40,20.6c-0.8,0-1.6,0.7-1.6,1.6v13c-0.7,0.3-1.4,0.6-1.9,1.1l-0.1,0.1c-0.5,0.5-0.9,1.2-1.2,2h-9.8
		c-0.8,0-1.6,0.7-1.6,1.6c0,0.8,0.7,1.6,1.6,1.6h9.7c0.3,0.8,0.7,1.4,1.2,2c0.9,0.9,2.2,1.4,3.6,1.4c1.4,0,2.6-0.6,3.6-1.4
		c0.9-0.9,1.4-2.2,1.4-3.6s-0.6-2.6-1.4-3.6c-0.5-0.5-1.2-0.9-2-1.2v-13C41.6,21.4,40.8,20.6,40,20.6z M41.9,40c0,0.5-0.3,1-0.6,1.4
		c-0.3,0.3-0.8,0.5-1.3,0.5s-1-0.2-1.3-0.5c-0.3-0.3-0.5-0.8-0.5-1.3s0.2-0.9,0.5-1.3c0,0,0,0,0.1-0.1c0.3-0.3,0.8-0.5,1.3-0.5
		s1,0.2,1.3,0.5C41.7,39.1,41.9,39.5,41.9,40z"/>
	<path class="st1" d="M53.2,47.4c-4.5,0-8.6,1.8-11.5,4.8c-3,3-4.8,7-4.8,11.5c0,4.5,1.8,8.6,4.8,11.5c2.9,2.9,7,4.8,11.5,4.8
		s8.6-1.8,11.5-4.8c3-3,4.8-7,4.8-11.5c0-4.5-1.8-8.6-4.8-11.5C61.7,49.2,57.6,47.4,53.2,47.4z M62.4,72.8c-2.4,2.4-5.6,3.8-9.3,3.8
		c-3.7,0-6.9-1.4-9.3-3.8s-3.8-5.6-3.8-9.3c0-3.6,1.4-6.9,3.8-9.3c2.4-2.4,5.6-3.8,9.3-3.8c3.7,0,6.9,1.4,9.3,3.8
		c2.4,2.4,3.8,5.6,3.8,9.3S64.8,70.4,62.4,72.8z"/>
	<g>
		<path class="st1" d="M51.2,70.3c-0.4,0-0.8-0.2-1.1-0.5L46,65.8c-0.6-0.6-0.6-1.6,0-2.3c0.6-0.6,1.6-0.6,2.3,0l3,3l6.7-6.7
			c0.6-0.6,1.6-0.6,2.3,0c0.6,0.6,0.6,1.6,0,2.3l-7.9,7.9C52.1,70.2,51.7,70.3,51.2,70.3z"/>
	</g>
</g>
</svg>
