<?xml version="1.0" encoding="UTF-8"?>
<svg xmlns="http://www.w3.org/2000/svg" xmlns:xlink="http://www.w3.org/1999/xlink" width="512" height="512" viewBox="0 0 60 60" version="1.1"><!-- Generator: Sketch 51.3 (57544) - http://www.bohemiancoding.com/sketch --><title>040 - Law</title><desc>Created with Sketch.</desc><defs/><g id="Page-1" stroke="none" stroke-width="1" fill="none" fill-rule="evenodd"><g id="040---Law" transform="translate(-1.000000, -1.000000)" fill="#000000" fill-rule="nonzero"><path d="M31.121,3.028 C33.7558064,2.87624436 36.3954826,3.22575799 38.9,4.058 C39.2394023,4.17143184 39.6135381,4.09517819 39.8814742,3.85796308 C40.1494102,3.62074797 40.2704405,3.25861001 40.1989742,2.90796307 C40.1275078,2.55731612 39.8744023,2.27143182 39.535,2.158 C36.7932927,1.24503712 33.9028028,0.862557126 31.018,1.031 C27.7640828,1.25668862 24.5310865,1.72059835 21.345,2.419 C16.836,3.319 13.559,4.9 11.322,7.264 C9.55741114,9.15217091 8.19304573,11.3778111 7.311,13.807 C6.95086895,14.8522819 6.65498362,15.9186045 6.425,17 L6.325,17.422 C6.1115707,18.2063052 5.82532664,18.9689531 5.47,19.7 C5.27,20.156 5.062,20.612 4.883,21.084 C4.65284498,21.6094053 4.56192334,22.1852424 4.619,22.756 C4.82021123,23.6521932 5.3374331,24.4459531 6.076,24.992 C6.565,25.44 6.886,25.756 6.89,26.031 C6.85421996,26.1830023 6.79697882,26.3291355 6.72,26.465 C5.52247783,28.986227 4.05560327,31.370443 2.345,33.576 C1.62,34.458 0.86,35.487 1.02,36.517 C1.23211923,37.311598 1.75555427,37.9871609 2.472,38.391 C2.80078202,38.6194083 3.14797678,38.8200989 3.51,38.991 C3.942,39.212 4.667,39.582 4.718,39.841 C4.78085126,40.1828692 4.73974795,40.5357307 4.6,40.854 C4.451,41.174 4.295,41.449 4.16,41.686 C3.794,42.333 3.181,43.417 4.105,44.172 C4.321,44.372 4.694,44.661 5.034,44.922 C4.78370505,45.359639 4.67048978,45.8623148 4.709,46.365 C4.76206133,46.7609003 4.97674391,47.1171358 5.302,47.349 C5.524,47.505 5.761,47.641 5.994,47.774 C6.586,48.11 6.817,48.267 6.894,48.581 C6.94956021,48.9834802 6.91541128,49.3932674 6.794,49.781 C6.735,50.048 6.678,50.316 6.644,50.581 C6.54469822,51.4923539 6.65729272,52.4143284 6.973,53.275 C7.42281456,54.8638526 8.85996076,55.9707558 10.511,56 C10.7865929,55.9991845 11.0613714,55.9700312 11.331,55.913 C14.1877778,55.2358183 17.0028445,54.3934018 19.762,53.39 C22.015,54.712 23.438,58.732 23.809,60.241 C23.9197719,60.6870872 24.3203652,61.0002183 24.78,61 L49.88,60.93 C50.198095,60.9293833 50.4969218,60.7774667 50.6848608,60.5208273 C50.8727998,60.2641879 50.9274293,59.9334437 50.832,59.63 C50.584758,58.9524505 50.2437748,58.3128965 49.819,57.73 C49.5792082,57.3843183 49.3630492,57.0228282 49.172,56.648 C48.7190564,55.7315437 48.3414759,54.7797332 48.043,53.802 C47.4718323,51.8698612 47.0758986,49.8901926 46.86,47.887 C46.6001606,45.6685656 46.7861332,43.420575 47.407,41.275 C47.5164893,40.9290073 47.4299384,40.5508524 47.1808535,40.286929 C46.9317685,40.0230057 46.5592485,39.9147421 46.2075058,40.0040499 C45.855763,40.0933577 45.5800108,40.3662182 45.487,40.717 C44.7907861,43.1211051 44.5823662,45.6401632 44.874,48.126 C45.1054034,50.2509065 45.5274365,52.3506972 46.135,54.4 C46.4640482,55.4749292 46.879054,56.5216399 47.376,57.53 C47.6041562,57.9828684 47.8630969,58.4195592 48.151,58.837 L48.218,58.937 L25.536,59 C24.8721602,56.6278229 23.6672676,54.4419012 22.016,52.614 L22.916,52.299 C23.586,52.065 24.091,51.889 24.35,51.806 C28.634,50.451 30.776,48.5 30.718,46.006 C30.7214518,45.7387084 30.6138758,45.4819599 30.4209177,45.2969629 C30.2279597,45.1119658 29.9669092,45.0152962 29.7,45.03 C29.1480455,45.043101 28.711146,45.5010397 28.724,46.053 C28.748,47.082 27.905,48.583 23.748,49.898 C23.477,49.985 22.955,50.167 22.262,50.409 C21.519,50.669 20.574,50.999 19.532,51.353 L19.525,51.353 C16.7107997,52.3845725 13.8393482,53.2526858 10.925,53.953 C9.99258516,54.1321767 9.08476242,53.5441652 8.867,52.62 C8.65336419,52.0511056 8.5729723,51.4408114 8.632,50.836 C8.658,50.626 8.706,50.418 8.752,50.209 C8.95576498,49.5176489 8.98564963,48.7866772 8.839,48.081 C8.54836782,47.1624818 7.87230663,46.4159671 6.987,46.036 L6.78,45.917 C6.88797779,45.6989963 7.01691908,45.4920204 7.165,45.299 C7.33275906,45.0864363 7.40714209,44.8149259 7.3711438,44.5465408 C7.33514552,44.2781557 7.19184383,44.0358431 6.974,43.875 C6.734,43.699 6.168,43.275 5.754,42.941 C5.802,42.854 5.854,42.758 5.904,42.671 C6.061,42.396 6.24,42.076 6.415,41.706 C6.73144627,41.0050454 6.82465982,40.2237273 6.682,39.468 C6.442,38.248 5.273,37.65 4.421,37.214 C4.13330073,37.0772824 3.85736569,36.9170729 3.596,36.735 C3.38336862,36.5912941 3.18391862,36.42899 3,36.25 C3,36.098 3.163,35.73 3.925,34.803 C5.71607044,32.4972449 7.2517206,30.0039928 8.505,27.367 C8.73934083,26.9538574 8.87135428,26.4906102 8.89,26.016 C8.78670832,25.0108401 8.25404392,24.0993679 7.429,23.516 C7.029,23.145 6.644,22.795 6.599,22.469 C6.60563423,22.2329751 6.65864086,22.0005614 6.755,21.785 C6.918,21.356 7.106,20.936 7.295,20.515 C7.70505054,19.6694994 8.03256792,18.786408 8.273,17.878 L8.373,17.452 C8.58408599,16.4522697 8.85626318,15.4664205 9.188,14.5 C9.97629737,12.324256 11.1967986,10.3305666 12.776,8.639 C14.689,6.615 17.7,5.183 21.74,4.38 C24.8299393,3.70168451 27.9652696,3.24981727 31.121,3.028 Z" id="Shape"/><path d="M12.167,18.8 L12.267,18.365 C12.4424278,17.5295136 12.6657971,16.7048165 12.936,15.895 C13.5391016,14.2259058 14.4723406,12.6954483 15.68,11.395 C16.9761231,10.1731454 18.5624442,9.30202828 20.289,8.864 C20.6376132,8.76576066 20.9058574,8.48669775 20.9902433,8.13447458 C21.0746292,7.7822514 20.9619648,7.41193017 20.6957164,7.1663819 C20.4294681,6.92083364 20.0512577,6.83844433 19.707,6.951 C17.6463921,7.48650189 15.7586426,8.54420641 14.226,10.022 C12.8334238,11.5175212 11.756941,13.2786676 11.061,15.2 C10.7612032,16.086623 10.5141052,16.9902005 10.321,17.906 L10.221,18.339 C10.1356254,18.6881834 10.2442362,19.0563226 10.5054777,19.3032451 C10.7667192,19.5501676 11.1403903,19.6378757 11.4842121,19.5329737 C11.8280339,19.4280717 12.0890973,19.1467025 12.168,18.796 L12.167,18.8 Z" id="Shape"/><circle id="Oval" cx="10" cy="22" r="1"/><path d="M60.95,15.754 C60.9363751,15.6888271 60.9162754,15.6251779 60.89,15.564 C60.882,15.548 60.883,15.53 60.874,15.514 L55.874,6.514 C55.868,6.504 55.859,6.498 55.854,6.488 C55.836,6.459 55.813,6.437 55.793,6.41 C55.7535362,6.3573953 55.7082482,6.30942364 55.658,6.267 C55.4373101,6.06035103 55.1336627,5.96700619 54.835,6.014 L46.65,7.381 C45.9182035,5.71353029 44.1485051,4.75492978 42.3520689,5.05292018 C40.5556327,5.35091059 39.1902219,6.82955876 39.036,8.644 L30.836,10.014 C30.6573915,10.0481619 30.4920528,10.1320445 30.359,10.256 C30.3153408,10.2903076 30.2748454,10.3284603 30.238,10.37 C30.214,10.401 30.189,10.429 30.168,10.461 C30.147,10.493 30.138,10.494 30.127,10.514 L25.127,19.514 C25.118,19.53 25.119,19.548 25.111,19.564 C25.0848792,19.6248907 25.0647833,19.6881927 25.051,19.753 C25.0311017,19.8181839 25.0177031,19.885177 25.011,19.953 C25.011,19.971 25.001,19.986 25.001,20.004 L25.001,22.004 C25.0043061,24.7640532 27.2409468,27.0006939 30.001,27.004 L32.001,27.004 C34.7610532,27.0006939 36.9976939,24.7640532 37.001,22.004 L37.001,20 C37.001,19.982 36.992,19.967 36.991,19.949 C36.9842583,19.8811828 36.9708604,19.8141935 36.951,19.749 C36.9373751,19.6838271 36.9172754,19.6201779 36.891,19.559 C36.883,19.543 36.884,19.525 36.875,19.509 L32.563,11.748 L39.35,10.619 C39.5150201,10.9831927 39.7341642,11.3203375 40,11.619 L40,30.09 C37.1166966,30.5798665 35.0054296,33.0753841 35,36 L35,37 C35,37.5522847 35.4477153,38 36,38 L50,38 C50.5522847,38 51,37.5522847 51,37 L51,36 C50.9945704,33.0753841 48.8833034,30.5798665 46,30.09 L46,11.618 C46.5530918,10.985315 46.8906884,10.1931537 46.964,9.356 L53.118,8.328 L49.126,15.514 C49.117,15.53 49.118,15.548 49.11,15.564 C49.0838792,15.6248907 49.0637833,15.6881927 49.05,15.753 C49.0301017,15.8181839 49.0167031,15.885177 49.01,15.953 C49.01,15.971 49,15.986 49,16.004 L49,18.004 C49.0033061,20.7640532 51.2399468,23.0006939 54,23.004 L56,23.004 C58.7600532,23.0006939 60.9966939,20.7640532 61,18.004 L61,16 C61,15.982 60.991,15.967 60.99,15.949 C60.9829384,15.8828696 60.9695436,15.81757 60.95,15.754 Z M58.3,15 L51.7,15 L55,9.059 L58.3,15 Z M42,12.858 C42.653223,13.0473403 43.346777,13.0473403 44,12.858 L44,30 L42,30 L42,12.858 Z M43,7 C44.1045695,7 45,7.8954305 45,9 C45,10.1045695 44.1045695,11 43,11 C41.8954305,11 41,10.1045695 41,9 C41,7.8954305 41.8954305,7 43,7 Z M31,13.059 L34.3,19 L27.7,19 L31,13.059 Z M35,22 C35,23.6568542 33.6568542,25 32,25 L30,25 C28.3431458,25 27,23.6568542 27,22 L27,21 L35,21 L35,22 Z M49,36 L37,36 C37,33.790861 38.790861,32 41,32 L45,32 C47.209139,32 49,33.790861 49,36 Z M59,18 C59,19.6568542 57.6568542,21 56,21 L54,21 C52.3431458,21 51,19.6568542 51,18 L51,17 L59,17 L59,18 Z" id="Shape"/></g></g></svg>
