<svg height="512pt" viewBox="0 -17 512.00065 512" width="512pt" xmlns="http://www.w3.org/2000/svg"><path d="m450.449219 339.492188c-3.453125-2.289063-8.105469-1.34375-10.394531 2.109374l-27.882813 42.082032-14.21875-13.496094c-3.003906-2.851562-7.75-2.730469-10.601563.273438-2.851562 3.003906-2.730468 7.753906.273438 10.605468 0 0 20.660156 19.613282 20.699219 19.648438 3.277343 3.113281 8.925781 2.460937 11.414062-1.296875l32.820313-49.535157c2.289062-3.449218 1.34375-8.101562-2.109375-10.390624zm0 0"/><path d="m313.140625 402.421875h-263.125v-32.167969h1.449219c9.269531 0 16.8125-7.542968 16.8125-16.808594v-58.335937c0-9.265625-7.542969-16.808594-16.8125-16.808594h-1.449219v-104.164062h1.449219c9.269531 0 16.8125-7.542969 16.8125-16.808594v-58.332031c0-9.269532-7.542969-16.8125-16.8125-16.8125h-1.449219v-32.167969h352.40625v201.792969c0 4.144531 3.355469 7.5 7.5 7.5 4.140625 0 7.5-3.355469 7.5-7.5v-202.59375c0-7.832032-6.371094-14.199219-14.199219-14.199219h-354.007812c-7.828125 0-14.199219 6.367187-14.199219 14.199219v33.160156c-8.070313 1.226562-14.269531 8.214844-14.269531 16.621094v58.332031c0 8.40625 6.203125 15.390625 14.269531 16.617187v104.546876c-8.070313 1.226562-14.269531 8.210937-14.269531 16.617187v58.332031c0 8.40625 6.203125 15.390625 14.269531 16.621094v33.160156c0 7.832032 6.371094 14.199219 14.199219 14.199219h263.925781c4.140625 0 7.5-3.359375 7.5-7.5s-3.359375-7.5-7.5-7.5zm-259.863281-107.3125v58.332031c0 1-.8125 1.8125-1.8125 1.8125h-13.910156c-1 0-1.8125-.8125-1.8125-1.8125v-58.332031c0-.996094.8125-1.808594 1.8125-1.808594h13.914062c.996094 0 1.808594.8125 1.808594 1.808594zm0-196.113281v58.332031c0 .996094-.8125 1.808594-1.8125 1.808594h-13.910156c-1 0-1.8125-.8125-1.8125-1.808594v-58.332031c0-1 .8125-1.8125 1.8125-1.8125h13.914062c.996094 0 1.808594.8125 1.808594 1.8125zm0 0"/><path d="m325.171875 255.410156-33.46875-19.328125c.597656-3.574219.910156-7.246093.910156-10.988281 0-28.992188-18.679687-53.703125-44.636719-62.730469v-38.285156c0-11.878906-9.664062-21.554687-21.554687-21.566406h-.25c-11.972656.011719-21.714844 9.761719-21.714844 21.734375v38.117187c-25.953125 9.03125-44.632812 33.742188-44.632812 62.734375 0 3.742188.308593 7.410156.90625 10.984375l-33.464844 19.328125c-10.222656 5.902344-13.890625 19.042969-8.179687 29.289063l.214843.382812c8.363281 13.484375 22.195313 11.753907 29.722657 8.019531l32.621093-18.839843c11.789063 10.699219 27.433594 17.230469 44.570313 17.230469 17.140625 0 32.78125-6.53125 44.574218-17.230469l32.617188 18.839843c15.589844 9.671876 25.921875-1.785156 29.742188-8.042968l.199218-.355469c5.714844-10.25 2.046875-23.390625-8.175781-29.292969zm-105.714844-131.164062c0-3.710938 3.019531-6.730469 6.761719-6.734375h.199219c3.617187.003906 6.5625 2.949219 6.5625 6.566406 0 11.613281.34375 23.277344-.027344 34.882813-7.703125-1.375-13.492187.082031-13.492187.082031-.003907 0-.003907-34.796875-.003907-34.796875zm-77.929687 155.863281c-2.152344 1.539063-6.863282.996094-9.136719-2.351563l-.203125-.359374c-1.746094-3.132813-.585938-7.171876 2.582031-9l30.28125-17.488282c1.769531 4.1875 3.960938 8.152344 6.515625 11.851563zm84.691406-3.621094c-28.339844 0-51.394531-23.054687-51.394531-51.394531 0-28.335938 23.054687-51.390625 51.394531-51.390625 28.335938 0 51.394531 23.054687 51.394531 51.390625 0 28.339844-23.054687 51.394531-51.394531 51.394531zm94.027344.910157-.1875.332031c-1.1875 2.207031-4.976563 5.042969-9.148438 2.378906l-30.042968-17.347656c2.554687-3.699219 4.746093-7.664063 6.519531-11.851563l30.28125 17.488282c3.167969 1.828124 4.324219 5.867187 2.578125 9zm0 0"/><path d="m226.21875 196.800781c-15.601562 0-28.292969 12.691407-28.292969 28.292969 0 15.605469 12.691407 28.296875 28.292969 28.296875s28.292969-12.695313 28.292969-28.296875-12.691407-28.292969-28.292969-28.292969zm0 41.589844c-7.332031 0-13.292969-5.964844-13.292969-13.292969 0-7.332031 5.960938-13.296875 13.292969-13.296875s13.292969 5.964844 13.292969 13.296875c0 7.328125-5.960938 13.292969-13.292969 13.292969zm0 0"/><path d="m503.089844 324.292969c-14.039063-5.828125-23.582032-18.863281-24.90625-34.019531-.546875-6.277344-5.910156-11.167969-12.222656-11.167969h-.074219l-13.449219.078125v-252.863282c0-14.515624-11.808594-26.320312-26.320312-26.320312h-399.796876c-14.511718 0-26.320312 11.808594-26.320312 26.320312v399.796876c0 14.515624 11.808594 26.320312 26.320312 26.320312h348.984376c10.34375 9.070312 22.589843 17.277344 37.078124 23.957031 2.523438 1.167969 5.726563 1.175781 8.300782-.046875 76.207031-36.242187 89.113281-114.34375 91.253906-137.417968.585938-6.3125-2.96875-12.199219-8.847656-14.636719zm-488.089844 101.824219v-399.796876c0-6.242187 5.078125-11.320312 11.320312-11.320312h399.796876c6.242187 0 11.320312 5.078125 11.320312 11.320312v252.949219l-72.574219.429688c-6.441406.035156-11.671875 4.925781-12.167969 11.371093-1.167968 15.160157-10.570312 28.289063-24.542968 34.265626-5.824219 2.488281-9.292969 8.40625-8.632813 14.71875 1.714844 16.386718 9.199219 60.53125 40.925781 97.382812h-334.125c-6.242187 0-11.320312-5.078125-11.320312-11.320312zm401.445312 35.613281c-67.019531-32.28125-79.652343-101.429688-81.960937-122.789063 18.132813-7.933594 30.554687-24.707031 32.921875-44.257812l96.113281-.5625c2.597657 19.515625 15.210938 36.140625 33.441407 43.867187-2.054688 21.378907-13.875 90.675781-80.515626 123.742188zm0 0"/></svg>